<svg id="Group_689" data-name="Group 689" xmlns="http://www.w3.org/2000/svg" width="537.051" height="540.893" viewBox="0 0 537.051 540.893">
  <path id="Path_2591" data-name="Path 2591" d="M859.281,274.571s88.384-51.424,38.568-205.705c0,0,152.264,71.29,212.132,14.464l19.286,25.712S1013.558,160.467,923.561,99.4c0,0,54.643,134.995-43.389,199.275Z" transform="translate(-859.281 64.701)" fill="#e7a124"/>
  <path id="Path_2592" data-name="Path 2592" d="M1063.589,407.6S1044.32,307.178,882.25,303.12c0,0,114.382-131.885,83.865-195.389l30.647-9.686s10.226,126.209-77.19,190.919c0,0,145.473-6.875,173.684,106.907Z" transform="translate(-805.291 133.289)" fill="#e7a124"/>
  <path id="Path_2593" data-name="Path 2593" d="M925.49,168.058s101.106-15.322,158.976,136.12c0,0,67.4-144.118,156.237-144.219l-1.087-32.122s-122.392,32.443-154.25,136.435c0,0-42.026-139.444-158.7-128.1Z" transform="translate(-703.652 203.319)" fill="#e7a124"/>
  <path id="Path_2594" data-name="Path 2594" d="M902.527,61.409S980.542,127.522,1109.29,29c0,0-19.416,151.908,60.633,204.764l-21.145,26.771s-87.143-91.866-59.669-197.1c0,0-108.962,96.624-202.32,25.719Z" transform="translate(-794.621 -29.002)" fill="#e7a124"/>
  <path id="Path_2595" data-name="Path 2595" d="M1071.885,41.477s-39.531,94.309,93.206,187.388c0,0-131.272,23.759-177.986,116.322l-30.889-8.9S1017.556,225.511,1126.174,220c0,0-124.97-74.781-85.487-185.166Z" transform="translate(-631.429 -15.296)" fill="#e7a124"/>
</svg>
