<svg xmlns="http://www.w3.org/2000/svg" width="391.578" height="215.529" viewBox="0 0 391.578 215.529">
  <g id="Logo" transform="translate(-690.707 -108.552)">
    <rect id="Rectangle_2" data-name="Rectangle 2" width="5.792" height="5.791" transform="translate(985.611 307.955)" fill="#e8b238"/>
    <rect id="Rectangle_3" data-name="Rectangle 3" width="6.332" height="6.333" transform="translate(909.506 283.395)" fill="#e8b238"/>
    <path id="Path_1" data-name="Path 1" d="M704.2,403.633c-.088-1.9-1.455-3.042-3.88-3.042-1.676,0-3.35.661-3.35,2.028,0,4.057,14.109.528,14.109,9.7,0,1.763-.97,7.583-10.318,7.583-3.175,0-9.524-.97-10.053-7.671h6.349c.088,2.2,2.029,3.086,3.925,3.086,1.632,0,3.748-.485,3.748-2.337,0-3.792-13.581-.353-13.581-9.7,0-3.484,2.69-7.276,9.392-7.276,5.82,0,9.656,2.557,10.009,7.5Z" transform="translate(0 -105.083)" fill="#e8b238"/>
    <path id="Path_2" data-name="Path 2" d="M731.5,396.623h6.085V399.8h.088a8.438,8.438,0,0,1,7.364-3.792c6.306,0,10.582,5.689,10.582,11.995s-3.968,11.9-10.494,11.9a8.207,8.207,0,0,1-7.188-3.7h-.087v12.963H731.5Zm11.773,4.5c-3.616,0-5.644,3-5.644,6.79,0,3.395,1.852,6.613,5.82,6.613,3.659,0,5.556-3.262,5.556-6.7C749,404.251,747.019,401.121,743.271,401.121Z" transform="translate(-14.912 -105.083)" fill="#e8b238"/>
    <path id="Path_3" data-name="Path 3" d="M791.546,416.332h-.088a9.348,9.348,0,0,1-7.76,3.571c-3.571,0-7.937-1.764-7.937-6.922,0-2.425,1.421-7.327,8.737-7.918,4.708-.381,6.783.6,6.783.6V404.6c0-2.69-1.675-4.013-4.453-4.013-2.6,0-4.144,1.323-4.277,3.352h-6.085c.221-3.484,2.69-7.938,10.627-7.938,5.6,0,10.273,2.117,10.273,7.319v13.14a12.528,12.528,0,0,0,.309,2.823h-6.129Zm-.265-4.85s-.587-3.761-5.624-2.72c-3.161.655-3.735,2.042-3.547,3.911.2,2.018,1.853,2.646,3.968,2.646,1.985,0,5.2-1.1,5.2-3.836Z" transform="translate(-31.093 -105.083)" fill="#e8b238"/>
    <path id="Path_4" data-name="Path 4" d="M956.426,416.351h-.088a9.348,9.348,0,0,1-7.761,3.572c-3.571,0-7.936-1.764-7.936-6.922,0-2.426,1.421-7.327,8.737-7.918,4.707-.381,6.784.6,6.784.6v-1.058c0-2.691-1.676-4.013-4.454-4.013-2.6,0-4.144,1.323-4.277,3.351h-6.085c.221-3.482,2.689-7.937,10.626-7.937,5.6,0,10.274,2.117,10.274,7.319v13.14a12.521,12.521,0,0,0,.308,2.822h-6.129Zm-.265-4.85s-.588-3.761-5.625-2.72c-3.161.655-3.734,2.041-3.547,3.911.2,2.017,1.852,2.646,3.968,2.646,1.985,0,5.2-1.1,5.2-3.836Z" transform="translate(-91.367 -105.09)" fill="#e8b238"/>
    <path id="Path_5" data-name="Path 5" d="M832.486,405.308c-.133-3.174-1.984-3.923-3.66-3.923-3.925,0-4.409,4.145-4.409,7.054,0,3,1.058,6.349,4.365,6.349,2.425,0,3.659-1.5,4.012-3.7l6.217.22c-.97,4.983-3.968,8.6-10.053,8.6-7.408,0-11.155-4.761-11.155-11.728,0-7.276,4.144-12.17,11.023-12.17,6.747,0,9.965,4.232,10.274,9.039Z" transform="translate(-46.462 -105.083)" fill="#e8b238"/>
    <path id="Path_6" data-name="Path 6" d="M863.052,409.763c.265,2.646,1.9,5.291,5.291,5.291a4.9,4.9,0,0,0,4.542-2.691l6.172.485c-1.543,4.63-5.688,7.055-11.023,7.055-6.834,0-11.6-4.673-11.6-11.9,0-7.321,4.763-11.995,11.6-11.995s11.6,4.674,11.6,11.995v1.763Zm10.23-4.057c-.221-2.2-1.9-4.849-4.938-4.849-3.307,0-4.938,2.292-5.291,4.849Z" transform="translate(-60.585 -105.083)" fill="#e8b238"/>
    <path id="Path_7" data-name="Path 7" d="M915.165,405.486c0-3.264-1.984-4.366-3.968-4.366-2.557,0-4.144,2.2-4.144,5.292v12.875H900.7V396.623h6.085v2.953h.088a7.541,7.541,0,0,1,6.7-3.571c5.468,0,7.937,3.529,7.937,7.892v15.391h-6.349Z" transform="translate(-76.767 -105.083)" fill="#e8b238"/>
    <path id="Path_8" data-name="Path 8" d="M982.592,396.623h6.084v4.365h.088c1.191-3.218,3.527-4.983,6.526-4.983h.882v6.174h-1.411c-3.263,0-5.82,1.983-5.82,6v11.112h-6.349Z" transform="translate(-106.703 -105.083)" fill="#e8b238"/>
    <path id="Path_9" data-name="Path 9" d="M1012,416.146l-.053-18.078h-2.911v-4.85h2.911v-6.526h6.349v6.526h3.352v4.85h-3.352v18.078Z" transform="translate(-116.369 -101.678)" fill="#e8b238"/>
    <path id="Path_10" data-name="Path 10" d="M1093.351,416.146l-.053-18.078h-2.91v-4.85h2.91v-6.526h6.349v6.526H1103v4.85h-3.351v18.078Z" transform="translate(-146.109 -101.678)" fill="#e8b238"/>
    <path id="Path_11" data-name="Path 11" d="M1035.58,396.979h6.349v22.665h-6.349Z" transform="translate(-126.073 -105.439)" fill="#e8b238"/>
    <path id="Path_12" data-name="Path 12" d="M1067,403.633c-.088-1.9-1.454-3.042-3.879-3.042-1.677,0-3.352.661-3.352,2.028,0,4.057,14.11.528,14.11,9.7,0,1.763-.97,7.583-10.317,7.583-3.176,0-9.525-.97-10.053-7.671h6.348c.088,2.2,2.03,3.086,3.925,3.086,1.63,0,3.748-.485,3.748-2.337,0-3.792-13.581-.353-13.581-9.7,0-3.484,2.689-7.276,9.391-7.276,5.82,0,9.657,2.557,10.01,7.5Z" transform="translate(-132.627 -105.083)" fill="#e8b238"/>
    <path id="Path_13" data-name="Path 13" d="M1128.776,403.633c-.088-1.9-1.455-3.042-3.88-3.042-1.676,0-3.351.661-3.351,2.028,0,4.057,14.109.528,14.109,9.7,0,1.763-.971,7.583-10.318,7.583-3.174,0-9.524-.97-10.053-7.671h6.349c.088,2.2,2.029,3.086,3.923,3.086,1.633,0,3.749-.485,3.749-2.337,0-3.792-13.581-.353-13.581-9.7,0-3.484,2.689-7.276,9.392-7.276,5.82,0,9.657,2.557,10.008,7.5Z" transform="translate(-155.21 -105.083)" fill="#e8b238"/>
    <path id="Path_14" data-name="Path 14" d="M1187.573,405.308c-.132-3.174-1.983-3.923-3.659-3.923-3.923,0-4.408,4.145-4.408,7.054,0,3,1.058,6.349,4.364,6.349,2.426,0,3.659-1.5,4.013-3.7l6.218.22c-.971,4.983-3.969,8.6-10.054,8.6-7.406,0-11.154-4.761-11.154-11.728,0-7.276,4.144-12.17,11.022-12.17,6.746,0,9.966,4.232,10.274,9.039Z" transform="translate(-176.269 -105.083)" fill="#e8b238"/>
    <path id="Path_15" data-name="Path 15" d="M1223.122,419.9c-6.834,0-11.6-4.673-11.6-11.95s4.762-11.949,11.6-11.949,11.6,4.674,11.6,11.949S1229.958,419.9,1223.122,419.9Zm0-18.783c-3.351,0-4.983,2.91-4.983,6.833s1.632,6.835,4.983,6.835,4.983-2.91,4.983-6.835S1226.474,401.121,1223.122,401.121Z" transform="translate(-190.393 -105.083)" fill="#e8b238"/>
    <path id="Path_16" data-name="Path 16" d="M1282.51,404.692a3.274,3.274,0,0,0-3.4-3.571c-2.425,0-3.615,2.248-3.615,4.057v14.11h-6.35V405.308c0-2.379-.793-4.188-3.439-4.188-2.6,0-3.572,2.2-3.572,4.409v13.758h-6.349V396.623h6.085v2.953h.088a7.289,7.289,0,0,1,6.835-3.571,6.527,6.527,0,0,1,6.084,3.529,7.889,7.889,0,0,1,6.658-3.529c3.879,0,7.319,2.248,7.319,7.012v16.271h-6.349Z" transform="translate(-206.574 -105.083)" fill="#e8b238"/>
    <path id="Path_17" data-name="Path 17" d="M884.624,225.045s24.737-14.392,10.794-57.571c0,0,42.614,19.952,59.37,4.048l5.4,7.2s-32.384,14.392-57.572-2.7c0,0,15.293,37.781-12.144,55.772Z" transform="translate(-70.889 -21.54)" fill="#e8b238"/>
    <path id="Path_18" data-name="Path 18" d="M969.326,297.241S963.934,269.134,918.574,268c0,0,32.013-36.911,23.472-54.683l8.578-2.712s2.862,35.322-21.6,53.433c0,0,40.714-1.925,48.61,29.92Z" transform="translate(-83.3 -37.306)" fill="#e8b238"/>
    <path id="Path_19" data-name="Path 19" d="M982.485,265.9s28.3-4.288,44.494,38.1c0,0,18.864-40.335,43.727-40.363l-.3-8.99s-34.255,9.079-43.171,38.184c0,0-11.762-39.026-44.416-35.851Z" transform="translate(-106.664 -53.404)" fill="#e8b238"/>
    <path id="Path_20" data-name="Path 20" d="M929.688,117.622s21.834,18.5,57.867-9.07c0,0-5.434,42.515,16.969,57.309l-5.917,7.493s-24.389-25.711-16.7-55.163c0,0-30.5,27.043-56.623,7.2Z" transform="translate(-85.753)" fill="#e8b238"/>
    <path id="Path_21" data-name="Path 21" d="M1060.274,119.031s-11.063,26.394,26.087,52.445c0,0-36.741,6.649-49.814,32.555l-8.645-2.491s17.167-31,47.567-32.546c0,0-34.975-20.929-23.926-51.823Z" transform="translate(-123.266 -3.151)" fill="#e8b238"/>
  </g>
</svg>
