<svg xmlns="http://www.w3.org/2000/svg" width="46.538" height="46.871" viewBox="0 0 46.538 46.871"><path d="M192.883,86.691s7.659-4.456,3.342-17.825c0,0,13.194,6.178,18.383,1.253l1.671,2.228s-10.027,4.456-17.825-.836c0,0,4.735,11.7-3.76,17.268Z" transform="translate(-192.883 -57.292)" fill="#2c2c2c"/><path d="M231.566,124.87s-1.67-8.7-15.714-9.054c0,0,9.912-11.429,7.267-16.931l2.656-.839s.886,10.937-6.689,16.544c0,0,12.606-.6,15.051,9.264Z" transform="translate(-209.183 -77.999)" fill="#2c2c2c"/><path d="M259.092,131.323s8.762-1.328,13.776,11.8c0,0,5.841-12.489,13.539-12.5l-.094-2.784s-10.606,2.811-13.367,11.823c0,0-3.642-12.084-13.752-11.1Z" transform="translate(-239.869 -99.142)" fill="#2c2c2c"/><path d="M221.756,31.81s6.76,5.729,17.917-2.808c0,0-1.683,13.164,5.254,17.744l-1.832,2.32s-7.551-7.961-5.171-17.079c0,0-9.442,8.373-17.532,2.229Z" transform="translate(-212.405 -29.002)" fill="#2c2c2c"/><path d="M299.841,35.409s-3.426,8.172,8.077,16.238c0,0-11.376,2.059-15.423,10.08l-2.677-.771s5.316-9.6,14.728-10.077c0,0-10.829-6.48-7.408-16.046Z" transform="translate(-261.673 -33.14)" fill="#2c2c2c"/></svg>