<svg xmlns="http://www.w3.org/2000/svg" width="183" height="183" viewBox="0 0 183 183">
  <g id="DesProcess1" transform="translate(-516 -2787)">
    <g id="Group_4587" data-name="Group 4587" transform="translate(516 2787)">
      <circle id="Ellipse_3" data-name="Ellipse 3" cx="77" cy="77" r="77" transform="translate(15 15)" fill="#ffc600"/>
      <g id="Ellipse_8" data-name="Ellipse 8" fill="none" stroke="#1f1e1d" stroke-width="5">
        <circle cx="91.5" cy="91.5" r="91.5" stroke="none"/>
        <circle cx="91.5" cy="91.5" r="89" fill="none"/>
      </g>
    </g>
    <g id="noun_computer_search_837254" data-name="noun_computer search_837254" transform="translate(560 2838)">
      <g id="Group_4619" data-name="Group 4619" transform="translate(0 0)">
        <path id="Path_85264" data-name="Path 85264" d="M296.529,145.035a8.455,8.455,0,0,0,4.414-1.258l5.672,5.672,2.836-2.836-5.653-5.672a8.491,8.491,0,1,0-7.269,4.094Zm-3.174-11.72a4.515,4.515,0,1,1,0,6.386A4.5,4.5,0,0,1,293.354,133.315Z" transform="translate(-233.928 -111.979)" fill="#fcfcfc"/>
        <path id="Path_85265" data-name="Path 85265" d="M0,384v6.837l9.2,9.2H86.961l9.2-9.2V384Zm42.072,10.011h-4v-4h4Zm8.02,0h-4v-4h4Zm8,0h-4v-4h4Z" transform="translate(0 -319.897)" fill="#fcfcfc"/>
        <path id="Path_85266" data-name="Path 85266" d="M109.463,42.7H21.3v60.1h88.144V42.7ZM99.433,84.753H31.33V54.7H99.452V84.753Z" transform="translate(-17.299 -42.7)" fill="#fcfcfc"/>
      </g>
    </g>
  </g>
</svg>
