<svg xmlns="http://www.w3.org/2000/svg" width="222.463" height="165.485" viewBox="0 0 222.463 165.485"><g transform="translate(53.132 0)"><path d="M859.281,113.07s18.993-11.051,8.288-44.2c0,0,32.72,15.32,45.585,3.108L917.3,77.5s-24.865,11.051-44.2-2.072c0,0,11.742,29.009-9.324,42.822Z" transform="translate(-859.281 -40.164)" fill="#e7a124"/><path d="M921.218,164.566s-4.141-21.581-38.968-22.453c0,0,24.58-28.341,18.022-41.987l6.586-2.082s2.2,27.121-16.588,41.027c0,0,31.261-1.477,37.323,22.973Z" transform="translate(-865.712 -48.334)" fill="#e7a124"/><path d="M925.49,136.481s21.727-3.293,34.162,29.251c0,0,14.484-30.97,33.574-30.991l-.233-6.9s-26.3,6.972-33.147,29.319c0,0-9.031-29.965-34.1-27.527Z" transform="translate(-877.819 -56.675)" fill="#e7a124"/><path d="M890.171,35.966S906.936,50.173,934.6,29c0,0-4.172,32.644,13.029,44l-4.544,5.753S924.362,59.016,930.266,36.4c0,0-23.415,20.764-43.477,5.527Z" transform="translate(-866.983 -29.002)" fill="#e7a124"/><path d="M981.072,36.261s-8.495,20.266,20.029,40.268c0,0-28.209,5.106-38.248,25l-6.638-1.912s13.181-23.8,36.522-24.989c0,0-26.855-16.07-18.37-39.79Z" transform="translate(-886.422 -30.635)" fill="#e7a124"/></g><g transform="translate(0 134.246)"><g transform="translate(0 1.243)"><path d="M795.3,229.337c-.068-1.456-1.117-2.336-2.979-2.336-1.287,0-2.573.508-2.573,1.557,0,3.115,10.834.406,10.834,7.448,0,1.354-.745,5.823-7.923,5.823-2.437,0-7.312-.744-7.719-5.89h4.875c.068,1.692,1.557,2.37,3.013,2.37,1.253,0,2.878-.372,2.878-1.794,0-2.912-10.428-.271-10.428-7.448,0-2.675,2.065-5.587,7.212-5.587,4.468,0,7.414,1.964,7.685,5.756Z" transform="translate(-784.937 -218.944)" fill="#e7a124"/><path d="M812.534,223.955h4.672v2.437h.068a6.477,6.477,0,0,1,5.653-2.912c4.841,0,8.125,4.368,8.125,9.21s-3.047,9.14-8.058,9.14a6.3,6.3,0,0,1-5.518-2.843h-.068v9.953h-4.875Zm9.039,3.452c-2.776,0-4.333,2.3-4.333,5.214,0,2.606,1.421,5.077,4.469,5.077,2.809,0,4.265-2.5,4.265-5.144C825.974,229.811,824.451,227.408,821.573,227.408Z" transform="translate(-792.664 -218.944)" fill="#e7a124"/><path d="M854.6,239.088h-.068a7.177,7.177,0,0,1-5.958,2.743c-2.743,0-6.094-1.354-6.094-5.315,0-1.862,1.091-5.625,6.708-6.08,3.615-.293,5.209.459,5.209.459v-.812c0-2.065-1.286-3.081-3.419-3.081-2,0-3.182,1.016-3.284,2.573h-4.672c.17-2.675,2.066-6.095,8.159-6.095,4.3,0,7.888,1.626,7.888,5.62V239.19a9.671,9.671,0,0,0,.237,2.167H854.6Zm-.2-3.724s-.451-2.887-4.319-2.088c-2.427.5-2.867,1.567-2.723,3,.156,1.549,1.422,2.031,3.047,2.031,1.524,0,3.995-.846,3.995-2.946Z" transform="translate(-801.049 -218.944)" fill="#e7a124"/><path d="M966.152,239.1h-.068a7.177,7.177,0,0,1-5.959,2.742c-2.742,0-6.094-1.354-6.094-5.314,0-1.863,1.091-5.626,6.708-6.08,3.615-.292,5.208.46,5.208.46V230.1c0-2.066-1.287-3.081-3.419-3.081-2,0-3.182,1.015-3.284,2.573h-4.672c.17-2.674,2.065-6.094,8.159-6.094,4.3,0,7.888,1.626,7.888,5.62V239.2a9.626,9.626,0,0,0,.237,2.167h-4.706Zm-.2-3.724s-.451-2.888-4.319-2.088c-2.427.5-2.867,1.567-2.723,3,.156,1.549,1.421,2.031,3.046,2.031,1.523,0,4-.846,4-2.946Z" transform="translate(-832.282 -218.948)" fill="#e7a124"/><path d="M882.2,230.623c-.1-2.437-1.524-3.012-2.81-3.012-3.013,0-3.385,3.182-3.385,5.416,0,2.3.813,4.876,3.352,4.876a2.958,2.958,0,0,0,3.081-2.843l4.774.168c-.745,3.826-3.047,6.6-7.719,6.6-5.687,0-8.565-3.655-8.565-9.005,0-5.587,3.182-9.345,8.464-9.345,5.181,0,7.652,3.25,7.888,6.941Z" transform="translate(-809.013 -218.944)" fill="#e7a124"/><path d="M902.142,234.043c.2,2.032,1.455,4.063,4.062,4.063a3.763,3.763,0,0,0,3.488-2.066l4.739.372c-1.184,3.555-4.367,5.417-8.464,5.417-5.247,0-8.9-3.589-8.9-9.14,0-5.621,3.656-9.21,8.9-9.21s8.9,3.589,8.9,9.21v1.353ZM910,230.928a3.932,3.932,0,0,0-7.854,0Z" transform="translate(-816.332 -218.944)" fill="#e7a124"/><path d="M938.116,230.76c0-2.506-1.524-3.352-3.047-3.352-1.964,0-3.182,1.693-3.182,4.064v9.886h-4.875v-17.4h4.672v2.267h.068a5.789,5.789,0,0,1,5.146-2.743c4.2,0,6.094,2.709,6.094,6.06v11.817h-4.875Z" transform="translate(-824.717 -218.944)" fill="#e7a124"/><path d="M982.414,223.955h4.671v3.351h.068c.914-2.471,2.708-3.826,5.01-3.826h.677v4.741h-1.084a4.212,4.212,0,0,0-4.468,4.6v8.532h-4.875Z" transform="translate(-840.229 -218.944)" fill="#e7a124"/><path d="M1002.579,239.8l-.04-13.881H1000.3v-3.723h2.236V217.18h4.874v5.011h2.573v3.723h-2.573V239.8Z" transform="translate(-845.238 -217.18)" fill="#e7a124"/><path d="M1057.619,239.8l-.04-13.881h-2.235v-3.723h2.235V217.18h4.874v5.011h2.573v3.723h-2.573V239.8Z" transform="translate(-860.649 -217.18)" fill="#e7a124"/><path d="M1018.263,224.14h4.875v17.4h-4.875Z" transform="translate(-850.267 -219.129)" fill="#e7a124"/><path d="M1040.752,229.337c-.068-1.456-1.117-2.336-2.979-2.336-1.287,0-2.573.508-2.573,1.557,0,3.115,10.834.406,10.834,7.448,0,1.354-.744,5.823-7.921,5.823-2.438,0-7.313-.744-7.719-5.89h4.875c.067,1.692,1.558,2.37,3.013,2.37,1.252,0,2.878-.372,2.878-1.794,0-2.912-10.427-.271-10.427-7.448,0-2.675,2.065-5.587,7.21-5.587,4.47,0,7.415,1.964,7.686,5.756Z" transform="translate(-853.663 -218.944)" fill="#e7a124"/><path d="M1082.547,229.337c-.068-1.456-1.117-2.336-2.979-2.336-1.287,0-2.573.508-2.573,1.557,0,3.115,10.833.406,10.833,7.448,0,1.354-.745,5.823-7.922,5.823-2.437,0-7.312-.744-7.719-5.89h4.876c.067,1.692,1.557,2.37,3.012,2.37,1.254,0,2.879-.372,2.879-1.794,0-2.912-10.427-.271-10.427-7.448,0-2.675,2.064-5.587,7.211-5.587,4.469,0,7.415,1.964,7.685,5.756Z" transform="translate(-865.365 -218.944)" fill="#e7a124"/></g><rect width="4.862" height="4.863" transform="translate(167.997)" fill="#e7a124"/></g></svg>