<svg id="Group_16" data-name="Group 16" xmlns="http://www.w3.org/2000/svg" xmlns:xlink="http://www.w3.org/1999/xlink" width="1920" height="93.056" viewBox="0 0 1920 93.056">
  <defs>
    <clipPath id="clip-path">
      <path id="Path_2673" data-name="Path 2673" d="M1920,79.267V0H0V93.056H1920Z" fill="none"/>
    </clipPath>
  </defs>
  <g id="Group_14" data-name="Group 14">
    <g id="Group_13" data-name="Group 13" clip-path="url(#clip-path)">
      <g id="Group_12" data-name="Group 12">
        <g id="Group_5" data-name="Group 5">
          <g id="Group_4" data-name="Group 4">
            <path id="Path_2657" data-name="Path 2657" d="M-47.31,95.74h-67.52l96-98.423h67.52Z" fill="#e8b238"/>
            <path id="Path_2658" data-name="Path 2658" d="M115.882-2.684h-67.2l-96,98.423H87.178l96-98.423Z" fill="#353535"/>
            <path id="Path_2659" data-name="Path 2659" d="M250.282-2.684h-67.2l-96,98.423H221.578l96-98.423Z" fill="#e8b238"/>
            <path id="Path_2660" data-name="Path 2660" d="M384.748-2.677h-67.2l-96,98.423H356.045l96-98.423Z" fill="#353535"/>
            <path id="Path_2661" data-name="Path 2661" d="M519.148-2.677h-67.2l-96,98.423H490.445l96-98.423Z" fill="#e8b238"/>
          </g>
        </g>
        <g id="Group_7" data-name="Group 7">
          <g id="Group_6" data-name="Group 6">
            <path id="Path_2662" data-name="Path 2662" d="M653.608-2.687h-67.2l-96,98.424H624.9l96-98.424Z" fill="#353535"/>
            <path id="Path_2663" data-name="Path 2663" d="M788.008-2.687h-67.2l-96,98.424H759.3l96-98.424Z" fill="#e8b238"/>
            <path id="Path_2664" data-name="Path 2664" d="M922.475-2.68h-67.2l-96,98.423H893.771l96-98.423Z" fill="#353535"/>
            <path id="Path_2665" data-name="Path 2665" d="M1056.875-2.68h-67.2l-96,98.423h134.488l96-98.423Z" fill="#e8b238"/>
          </g>
        </g>
        <g id="Group_9" data-name="Group 9">
          <g id="Group_8" data-name="Group 8">
            <path id="Path_2666" data-name="Path 2666" d="M1191.317-2.675h-67.2l-96,98.424h134.488l96-98.424Z" fill="#353535"/>
            <path id="Path_2667" data-name="Path 2667" d="M1325.717-2.675h-67.2l-96,98.424h134.488l96-98.424Z" fill="#e8b238"/>
            <path id="Path_2668" data-name="Path 2668" d="M1460.183-2.669h-67.2l-96,98.424h134.488l96-98.424Z" fill="#353535"/>
            <path id="Path_2669" data-name="Path 2669" d="M1594.678-2.669h-67.2l-96,98.424h134.4l96-98.424Z" fill="#e8b238"/>
          </g>
        </g>
        <g id="Group_11" data-name="Group 11">
          <g id="Group_10" data-name="Group 10">
            <path id="Path_2670" data-name="Path 2670" d="M1729.043-2.679l-67.168.01-96,98.424,67.169-.01h67.291l96-98.423Z" fill="#353535"/>
            <path id="Path_2671" data-name="Path 2671" d="M1863.443-2.679h-67.109l-96,98.423h134.4l96-98.424Z" fill="#e8b238"/>
            <path id="Path_2672" data-name="Path 2672" d="M1997.91-2.672h-67.2l-96,98.424h134.488l96-98.424Z" fill="#353535"/>
          </g>
        </g>
      </g>
    </g>
  </g>
</svg>
