<svg id="LogoOnly" xmlns="http://www.w3.org/2000/svg" width="57.365" height="57.776" viewBox="0 0 57.365 57.776">
  <path id="Path_2591" data-name="Path 2591" d="M859.281,90.839s9.441-5.493,4.12-21.973c0,0,16.264,7.615,22.659,1.545l2.06,2.746s-12.359,5.493-21.973-1.03c0,0,5.837,14.42-4.635,21.286Z" transform="translate(-859.281 -54.599)" fill="#e7a124"/>
  <path id="Path_2592" data-name="Path 2592" d="M901.62,131.111s-2.058-10.727-19.37-11.161c0,0,12.218-14.087,8.958-20.871l3.274-1.035s1.092,13.481-8.245,20.393c0,0,15.539-.734,18.552,11.419Z" transform="translate(-874.03 -73.335)" fill="#e7a124"/>
  <path id="Path_2593" data-name="Path 2593" d="M925.49,132.134s10.8-1.637,16.981,14.54c0,0,7.2-15.394,16.689-15.4l-.116-3.431s-13.073,3.465-16.476,14.573c0,0-4.489-14.895-16.952-13.683Z" transform="translate(-901.794 -92.465)" fill="#e7a124"/>
  <path id="Path_2594" data-name="Path 2594" d="M888.47,32.464S896.8,39.526,910.556,29c0,0-2.074,16.226,6.476,21.872l-2.259,2.86s-9.308-9.813-6.374-21.053c0,0-11.639,10.321-21.611,2.747Z" transform="translate(-876.944 -29.002)" fill="#e7a124"/>
  <path id="Path_2595" data-name="Path 2595" d="M968.571,35.543s-4.223,10.074,9.956,20.016c0,0-14.022,2.538-19.012,12.425l-3.3-.951S962.768,55.2,974.37,54.612c0,0-13.349-7.988-9.131-19.779Z" transform="translate(-921.524 -32.746)" fill="#e7a124"/>
</svg>
