<svg id="logo" xmlns="http://www.w3.org/2000/svg" width="125.187" height="93.124" viewBox="0 0 125.187 93.124">
  <g id="Group_689" data-name="Group 689" transform="translate(29.899)">
    <path id="Path_2591" data-name="Path 2591" d="M859.281,93.741s10.688-6.219,4.664-24.875c0,0,18.413,8.621,25.652,1.749l2.332,3.109s-13.992,6.219-24.875-1.166c0,0,6.608,16.324-5.247,24.1Z" transform="translate(-859.281 -52.714)" fill="#e7a124"/>
    <path id="Path_2592" data-name="Path 2592" d="M904.178,135.479s-2.33-12.144-21.928-12.635c0,0,13.832-15.948,10.141-23.627l3.706-1.171s1.237,15.262-9.334,23.087c0,0,17.591-.831,21,12.928Z" transform="translate(-872.944 -70.071)" fill="#e7a124"/>
    <path id="Path_2593" data-name="Path 2593" d="M925.49,132.7s12.226-1.853,19.224,16.46c0,0,8.151-17.428,18.893-17.44l-.131-3.884s-14.8,3.923-18.653,16.5c0,0-5.082-16.862-19.191-15.49Z" transform="translate(-898.664 -87.793)" fill="#e7a124"/>
    <path id="Path_2594" data-name="Path 2594" d="M888.692,32.921s9.434,7.995,25-3.919c0,0-2.348,18.37,7.332,24.761L918.47,57s-10.538-11.109-7.215-23.834c0,0-13.176,11.684-24.466,3.11Z" transform="translate(-875.644 -29.002)" fill="#e7a124"/>
    <path id="Path_2595" data-name="Path 2595" d="M970.2,35.636s-4.78,11.4,11.271,22.66c0,0-15.874,2.873-21.523,14.066l-3.735-1.076s7.417-13.4,20.552-14.062c0,0-15.112-9.043-10.338-22.391Z" transform="translate(-916.941 -32.47)" fill="#e7a124"/>
  </g>
  <g id="Group_691" data-name="Group 691" transform="translate(0 75.544)">
    <g id="Group_690" data-name="Group 690" transform="translate(0 0.7)">
      <path id="Path_2596" data-name="Path 2596" d="M790.767,226.776c-.038-.819-.629-1.314-1.676-1.314-.724,0-1.448.286-1.448.876,0,1.753,6.1.228,6.1,4.191,0,.762-.419,3.277-4.458,3.277-1.372,0-4.115-.419-4.344-3.315h2.743c.038.952.876,1.333,1.7,1.333.7,0,1.62-.209,1.62-1.01,0-1.639-5.868-.152-5.868-4.191,0-1.505,1.162-3.144,4.058-3.144,2.514,0,4.172,1.105,4.324,3.239Z" transform="translate(-784.937 -220.927)" fill="#e7a124"/>
      <path id="Path_2597" data-name="Path 2597" d="M812.534,223.747h2.629v1.371h.038a3.645,3.645,0,0,1,3.181-1.639c2.724,0,4.572,2.458,4.572,5.183s-1.715,5.143-4.534,5.143a3.546,3.546,0,0,1-3.105-1.6h-.038v5.6h-2.743Zm5.087,1.943c-1.562,0-2.438,1.3-2.438,2.934a2.563,2.563,0,0,0,2.515,2.857c1.581,0,2.4-1.409,2.4-2.895C820.1,227.043,819.24,225.69,817.621,225.69Z" transform="translate(-801.353 -220.927)" fill="#e7a124"/>
      <path id="Path_2598" data-name="Path 2598" d="M849.3,232.263h-.038a4.039,4.039,0,0,1-3.353,1.543c-1.543,0-3.429-.762-3.429-2.991,0-1.048.614-3.166,3.775-3.421a6.313,6.313,0,0,1,2.931.258V227.2c0-1.162-.724-1.734-1.924-1.734-1.124,0-1.79.572-1.848,1.448h-2.629c.1-1.505,1.162-3.43,4.591-3.43,2.42,0,4.439.915,4.439,3.163v5.678a5.44,5.44,0,0,0,.133,1.22H849.3Zm-.114-2.1s-.254-1.625-2.43-1.175c-1.366.283-1.613.882-1.532,1.69.088.872.8,1.143,1.715,1.143.857,0,2.248-.476,2.248-1.658Z" transform="translate(-819.166 -220.927)" fill="#e7a124"/>
      <path id="Path_2599" data-name="Path 2599" d="M960.852,232.276h-.038a4.039,4.039,0,0,1-3.353,1.543c-1.543,0-3.429-.762-3.429-2.991,0-1.048.614-3.166,3.775-3.422a6.315,6.315,0,0,1,2.931.259v-.457c0-1.162-.724-1.734-1.924-1.734-1.124,0-1.791.571-1.848,1.448h-2.629c.1-1.5,1.162-3.429,4.591-3.429,2.419,0,4.439.915,4.439,3.163v5.677a5.413,5.413,0,0,0,.133,1.22h-2.648Zm-.114-2.1s-.254-1.625-2.43-1.175c-1.366.283-1.613.882-1.532,1.69.088.872.8,1.143,1.714,1.143.857,0,2.248-.476,2.248-1.658Z" transform="translate(-885.52 -220.935)" fill="#e7a124"/>
      <path id="Path_2600" data-name="Path 2600" d="M877.268,227.5c-.057-1.371-.857-1.695-1.581-1.695-1.7,0-1.905,1.791-1.905,3.048,0,1.3.457,2.744,1.886,2.744A1.665,1.665,0,0,0,877.4,230l2.686.095a4.117,4.117,0,0,1-4.344,3.715c-3.2,0-4.82-2.057-4.82-5.067,0-3.144,1.791-5.259,4.763-5.259a4.048,4.048,0,0,1,4.439,3.906Z" transform="translate(-836.085 -220.927)" fill="#e7a124"/>
      <path id="Path_2601" data-name="Path 2601" d="M899.922,229.424a2.3,2.3,0,0,0,2.286,2.286,2.118,2.118,0,0,0,1.963-1.162l2.667.209c-.667,2-2.457,3.049-4.763,3.049a5.165,5.165,0,1,1,5.01-5.143v.761Zm4.42-1.753a2.213,2.213,0,0,0-4.42,0Z" transform="translate(-851.634 -220.927)" fill="#e7a124"/>
      <path id="Path_2602" data-name="Path 2602" d="M933.26,227.577a1.649,1.649,0,0,0-1.715-1.886c-1.1,0-1.791.953-1.791,2.287v5.563h-2.743v-9.793h2.629v1.276h.038a3.258,3.258,0,0,1,2.9-1.543A3.155,3.155,0,0,1,936,226.89v6.65H933.26Z" transform="translate(-869.447 -220.927)" fill="#e7a124"/>
      <path id="Path_2603" data-name="Path 2603" d="M982.414,223.747h2.629v1.886h.039a2.947,2.947,0,0,1,2.82-2.153h.381v2.668h-.61a2.37,2.37,0,0,0-2.515,2.591v4.8h-2.743Z" transform="translate(-902.403 -220.927)" fill="#e7a124"/>
      <path id="Path_2604" data-name="Path 2604" d="M1001.584,229.906l-.023-7.811H1000.3V220h1.258v-2.82h2.743V220h1.448v2.1H1004.3v7.811Z" transform="translate(-913.043 -217.18)" fill="#e7a124"/>
      <path id="Path_2605" data-name="Path 2605" d="M1056.624,229.906l-.023-7.811h-1.258V220h1.258v-2.82h2.743V220h1.448v2.1h-1.448v7.811Z" transform="translate(-945.784 -217.18)" fill="#e7a124"/>
      <path id="Path_2606" data-name="Path 2606" d="M1018.263,224.14h2.743v9.793h-2.743Z" transform="translate(-923.727 -221.32)" fill="#e7a124"/>
      <path id="Path_2607" data-name="Path 2607" d="M1036.222,226.776c-.038-.819-.629-1.314-1.676-1.314-.724,0-1.448.286-1.448.876,0,1.753,6.1.228,6.1,4.191,0,.762-.419,3.277-4.458,3.277-1.372,0-4.115-.419-4.344-3.315h2.743c.038.952.877,1.333,1.7,1.333.7,0,1.62-.209,1.62-1.01,0-1.639-5.868-.152-5.868-4.191,0-1.505,1.162-3.144,4.057-3.144,2.515,0,4.173,1.105,4.325,3.239Z" transform="translate(-930.942 -220.927)" fill="#e7a124"/>
      <path id="Path_2608" data-name="Path 2608" d="M1078.017,226.776c-.038-.819-.628-1.314-1.676-1.314-.724,0-1.448.286-1.448.876,0,1.753,6.1.228,6.1,4.191,0,.762-.419,3.277-4.458,3.277-1.372,0-4.115-.419-4.344-3.315h2.744c.038.952.876,1.333,1.695,1.333.705,0,1.62-.209,1.62-1.01,0-1.639-5.868-.152-5.868-4.191,0-1.505,1.162-3.144,4.058-3.144,2.515,0,4.173,1.105,4.324,3.239Z" transform="translate(-955.802 -220.927)" fill="#e7a124"/>
    </g>
    <rect id="Rectangle_202" data-name="Rectangle 202" width="2.736" height="2.736" transform="translate(94.537)" fill="#e7a124"/>
  </g>
</svg>
