<svg xmlns="http://www.w3.org/2000/svg" width="116.389" height="38.664" viewBox="0 0 116.389 38.664">
  <g id="MobileLogo" transform="translate(-14.611 -9)">
    <g id="Group_689" data-name="Group 689" transform="translate(14.611 9)">
      <path id="Path_2591" data-name="Path 2591" d="M859.281,83.57s6.318-3.676,2.757-14.7c0,0,10.884,5.1,15.163,1.034l1.379,1.838s-8.271,3.676-14.7-.689c0,0,3.906,9.65-3.1,14.244Z" transform="translate(-859.281 -59.318)" fill="#e7a124"/>
      <path id="Path_2592" data-name="Path 2592" d="M895.212,120.173s-1.377-7.179-12.962-7.469c0,0,8.176-9.427,5.995-13.967l2.191-.692s.731,9.022-5.518,13.647c0,0,10.4-.491,12.415,7.642Z" transform="translate(-876.749 -81.509)" fill="#e7a124"/>
      <path id="Path_2593" data-name="Path 2593" d="M925.49,130.713s7.227-1.1,11.364,9.73c0,0,4.818-10.3,11.168-10.309l-.078-2.3s-8.749,2.319-11.026,9.753c0,0-3-9.968-11.344-9.157Z" transform="translate(-909.633 -104.167)" fill="#e7a124"/>
      <path id="Path_2594" data-name="Path 2594" d="M887.914,31.318s5.577,4.726,14.78-2.316c0,0-1.388,10.859,4.334,14.637l-1.511,1.914s-6.229-6.567-4.265-14.089c0,0-7.789,6.907-14.462,1.838Z" transform="translate(-880.201 -29.002)" fill="#e7a124"/>
      <path id="Path_2595" data-name="Path 2595" d="M964.484,35.308s-2.826,6.741,6.662,13.395c0,0-9.383,1.7-12.723,8.315l-2.208-.636s4.385-7.918,12.149-8.312c0,0-8.933-5.345-6.111-13.236Z" transform="translate(-933 -33.436)" fill="#e7a124"/>
    </g>
    <g id="Group_691" data-name="Group 691" transform="translate(57 22.655)">
      <g id="Group_690" data-name="Group 690" transform="translate(0 0.414)">
        <path id="Path_2596" data-name="Path 2596" d="M788.383,225.428c-.023-.484-.372-.777-.991-.777-.428,0-.856.169-.856.518,0,1.036,3.6.135,3.6,2.478,0,.45-.248,1.937-2.635,1.937a2.277,2.277,0,0,1-2.568-1.959h1.622c.022.563.518.788,1,.788.417,0,.957-.124.957-.6,0-.969-3.469-.09-3.469-2.478,0-.89.687-1.858,2.4-1.858,1.486,0,2.466.653,2.556,1.915Z" transform="translate(-784.937 -221.971)" fill="#e7a124"/>
        <path id="Path_2597" data-name="Path 2597" d="M812.534,223.638h1.554v.81h.023a2.154,2.154,0,0,1,1.881-.969,2.873,2.873,0,0,1,2.7,3.064,2.8,2.8,0,0,1-2.68,3.04,2.1,2.1,0,0,1-1.836-.946h-.022v3.311h-1.622Zm3.007,1.148c-.923,0-1.441.766-1.441,1.734a1.474,1.474,0,1,0,1.441-1.734Z" transform="translate(-805.924 -221.971)" fill="#e7a124"/>
        <path id="Path_2598" data-name="Path 2598" d="M846.513,228.672h-.022a2.387,2.387,0,0,1-1.982.912,1.811,1.811,0,0,1-2.027-1.768c0-.619.363-1.871,2.231-2.022a3.731,3.731,0,0,1,1.733.153v-.27c0-.687-.428-1.025-1.137-1.025-.664,0-1.058.338-1.092.856h-1.554c.056-.89.687-2.027,2.714-2.027,1.43,0,2.624.541,2.624,1.87v3.356a3.216,3.216,0,0,0,.079.721h-1.565Zm-.068-1.239s-.15-.96-1.437-.695c-.807.167-.954.521-.906,1,.052.515.473.676,1.014.676.507,0,1.329-.281,1.329-.98Z" transform="translate(-828.699 -221.971)" fill="#e7a124"/>
        <path id="Path_2599" data-name="Path 2599" d="M958.064,228.685h-.022a2.388,2.388,0,0,1-1.982.912,1.81,1.81,0,0,1-2.027-1.768c0-.62.363-1.871,2.231-2.023a3.733,3.733,0,0,1,1.733.153v-.27c0-.687-.428-1.025-1.138-1.025-.664,0-1.059.338-1.092.856h-1.554c.056-.89.687-2.027,2.714-2.027,1.43,0,2.624.541,2.624,1.87v3.356a3.2,3.2,0,0,0,.079.721h-1.565ZM958,227.446s-.15-.961-1.437-.695c-.807.167-.954.521-.906,1,.052.515.473.676,1.013.676.507,0,1.329-.281,1.329-.98Z" transform="translate(-913.533 -221.981)" fill="#e7a124"/>
        <path id="Path_2600" data-name="Path 2600" d="M874.674,225.856c-.034-.81-.507-1-.935-1-1,0-1.126,1.059-1.126,1.8,0,.766.27,1.622,1.115,1.622a.984.984,0,0,0,1.025-.946l1.588.056a2.433,2.433,0,0,1-2.568,2.2,2.68,2.68,0,0,1-2.849-3c0-1.858,1.059-3.109,2.815-3.109a2.393,2.393,0,0,1,2.624,2.309Z" transform="translate(-850.33 -221.971)" fill="#e7a124"/>
        <path id="Path_2601" data-name="Path 2601" d="M898.753,226.994a1.361,1.361,0,0,0,1.351,1.352,1.252,1.252,0,0,0,1.16-.687l1.576.124a2.735,2.735,0,0,1-2.815,1.8,3.053,3.053,0,1,1,2.962-3.04v.45Zm2.612-1.036a1.308,1.308,0,0,0-2.612,0Z" transform="translate(-870.209 -221.971)" fill="#e7a124"/>
        <path id="Path_2602" data-name="Path 2602" d="M930.7,225.9a.975.975,0,0,0-1.014-1.115c-.653,0-1.059.563-1.059,1.352v3.288h-1.622v-5.789h1.554v.754h.022a1.926,1.926,0,0,1,1.712-.912,1.865,1.865,0,0,1,2.027,2.016v3.931H930.7Z" transform="translate(-892.984 -221.971)" fill="#e7a124"/>
        <path id="Path_2603" data-name="Path 2603" d="M982.414,223.638h1.554v1.115h.023a1.742,1.742,0,0,1,1.667-1.273h.225v1.577h-.36a1.4,1.4,0,0,0-1.486,1.531v2.838h-1.622Z" transform="translate(-935.118 -221.971)" fill="#e7a124"/>
        <path id="Path_2604" data-name="Path 2604" d="M1001.06,224.7l-.013-4.617h-.744v-1.238h.744V217.18h1.621v1.667h.856v1.238h-.856V224.7Z" transform="translate(-948.722 -217.18)" fill="#e7a124"/>
        <path id="Path_2605" data-name="Path 2605" d="M1056.1,224.7l-.013-4.617h-.744v-1.238h.744V217.18h1.621v1.667h.856v1.238h-.856V224.7Z" transform="translate(-990.581 -217.18)" fill="#e7a124"/>
        <path id="Path_2606" data-name="Path 2606" d="M1018.263,224.14h1.622v5.789h-1.622Z" transform="translate(-962.381 -222.473)" fill="#e7a124"/>
        <path id="Path_2607" data-name="Path 2607" d="M1033.839,225.428c-.023-.484-.371-.777-.991-.777-.428,0-.856.169-.856.518,0,1.036,3.6.135,3.6,2.478,0,.45-.248,1.937-2.635,1.937a2.277,2.277,0,0,1-2.568-1.959h1.621c.022.563.518.788,1,.788.417,0,.957-.124.957-.6,0-.969-3.468-.09-3.468-2.478,0-.89.687-1.858,2.4-1.858,1.487,0,2.467.653,2.557,1.915Z" transform="translate(-971.606 -221.971)" fill="#e7a124"/>
        <path id="Path_2608" data-name="Path 2608" d="M1075.633,225.428c-.022-.484-.371-.777-.991-.777-.428,0-.856.169-.856.518,0,1.036,3.6.135,3.6,2.478,0,.45-.248,1.937-2.635,1.937a2.277,2.277,0,0,1-2.568-1.959h1.622c.022.563.518.788,1,.788.417,0,.958-.124.958-.6,0-.969-3.469-.09-3.469-2.478,0-.89.687-1.858,2.4-1.858,1.486,0,2.467.653,2.556,1.915Z" transform="translate(-1003.39 -221.971)" fill="#e7a124"/>
      </g>
      <rect id="Rectangle_202" data-name="Rectangle 202" width="1.617" height="1.618" transform="translate(55.882)" fill="#e7a124"/>
    </g>
  </g>
</svg>
