<svg xmlns="http://www.w3.org/2000/svg" width="349" height="248.597" viewBox="0 0 349 248.597">
  <g id="Work3" transform="translate(-1181 -2534)">
    <g id="Path_2485" data-name="Path 2485" transform="translate(843 2530.992)" fill="none">
      <path d="M380,60.228l230.753-1.207-60.98,156.554H380Z" stroke="none"/>
      <path d="M 604.890625 63.05165100097656 L 384 64.20671081542969 L 384 211.5754241943359 L 547.0385131835938 211.5754241943359 L 604.890625 63.05165100097656 M 610.75341796875 59.02095031738281 L 549.773193359375 215.5754241943359 L 380 215.5754241943359 L 380 60.22758483886719 L 610.75341796875 59.02095031738281 Z" stroke="none" fill="#2c2c2c"/>
    </g>
    <path id="Path_2484" data-name="Path 2484" d="M-812.343-3915.973h-274.114l19.886-193.523h274.114Z" transform="translate(2322.457 6643.496)" fill="#e8b239"/>
    <path id="Path_2487" data-name="Path 2487" d="M1242.51,968.527v-27.6h2.6c17.4,0,22.4-5,22.4-14.8,0-7.8-4-13-10.6-13-7.2,0-11.2,4-11.4,12.8h-37.2c0-27.6,21.2-46,50.6-46,25.6,0,46.4,16.2,46.4,40.4,0,14.6-7,24.4-19.6,31,18.4,6.4,27.8,18.8,27.8,35.8,0,26.4-26,46.4-54.8,46.4-22.6,0-52.8-11.2-54.4-47h38.2c2.2,9,7.8,13.8,17.2,13.8,10.2,0,16-6.4,16-16.6,0-9.8-5.8-15.2-24.2-15.2Z" transform="translate(-23.311 1749.071)" fill="#130a00"/>
    <text id="Connect_collaborate_and_express_yourself_" data-name="Connect, collaborate and express yourself!" transform="translate(1312 2577)" fill="#fefff9" font-size="24" font-family="Almarai-Regular, Almarai" letter-spacing="0.035em"><tspan x="21.868" y="22">Connect, </tspan><tspan x="9.376" y="47.5">collaborate </tspan><tspan x="4.18" y="73">and express </tspan><tspan x="24.496" y="98.5">yourself!</tspan></text>
  </g>
</svg>
