<?xml version="1.0" encoding="utf-8"?>
<!-- Generator: Adobe Illustrator 25.0.1, SVG Export Plug-In . SVG Version: 6.00 Build 0)  -->
<svg version="1.1" id="Layer_1" xmlns="http://www.w3.org/2000/svg" xmlns:xlink="http://www.w3.org/1999/xlink" x="0px" y="0px"
	 viewBox="0 0 338 245.8" style="enable-background:new 0 0 338 245.8;" xml:space="preserve">
<style type="text/css">
	.st0{fill:none;}
	.st1{fill:#2C2C2C;}
	.st2{fill:#E8B239;}
	.st3{enable-background:new    ;}
	.st4{fill:#FEFFF9;}
	.st5{fill:#130A00;}
</style>
<g id="Group_1069" transform="translate(-766 -2516)">
	<g id="Path_2485" transform="translate(416.5 2512.979)">
		<path class="st0" d="M380,60.2L610.8,59l-61,156.6H380V60.2z"/>
		<path class="st1" d="M604.9,63.1L384,64.2v147.4h163L604.9,63.1 M610.8,59l-61,156.6H380V60.2L610.8,59z"/>
	</g>
	<path id="Path_2484" class="st2" d="M1084.1,2710.6H810l19.9-193.5H1104L1084.1,2710.6z"/>
	<g class="st3">
		<path class="st4" d="M904.1,2606.6v-17.2h7c1.6,0,2.8,0.4,3.7,1.2c0.9,0.8,1.4,1.9,1.4,3.2c0,1.8-0.8,3-2.4,3.7
			c2.1,0.8,3.1,2.2,3.1,4.2c0,1.4-0.4,2.5-1.3,3.5c-0.9,1-2.2,1.4-3.8,1.4H904.1z M906.3,2596.8h4.2c1.1,0,2-0.2,2.5-0.6
			c0.6-0.5,0.9-1.2,0.9-2.1s-0.3-1.7-0.9-2.1c-0.5-0.4-1.4-0.6-2.5-0.6h-4.2V2596.8z M906.3,2604.6h5.4c1,0,1.7-0.3,2.3-0.8
			c0.5-0.5,0.8-1.2,0.8-2.2c0-0.9-0.3-1.7-0.8-2.2c-0.5-0.5-1.3-0.8-2.3-0.8h-5.4V2604.6z"/>
		<path class="st4" d="M930,2601h-9.1c0,1.1,0.2,1.9,0.7,2.5c0.7,1,1.7,1.5,3,1.5c1.6,0,2.7-0.8,3.2-2.3h2c-0.3,1.3-0.8,2.3-1.8,3
			c-0.9,0.7-2.1,1.1-3.5,1.1c-1.9,0-3.3-0.6-4.3-1.9c-0.9-1.1-1.3-2.6-1.3-4.4c0-2.1,0.6-3.8,1.7-5c1-1,2.3-1.5,3.9-1.5
			c1.2,0,2.2,0.3,3.1,0.8c0.9,0.6,1.5,1.3,1.9,2.3C929.9,2598,930,2599.2,930,2601L930,2601z M927.9,2599.4c0-1.1-0.3-1.9-0.9-2.6
			c-0.6-0.7-1.4-1-2.4-1c-1,0-1.8,0.3-2.5,1c-0.6,0.6-1,1.5-1.1,2.6H927.9z"/>
		<path class="st4" d="M939.8,2599.3v7.3h-2.2v-17.2h7.1c1.8,0,3.2,0.5,4.1,1.5c0.8,0.9,1.2,2,1.2,3.6c0,1.5-0.5,2.7-1.5,3.6
			c-0.9,0.8-2,1.2-3.3,1.2H939.8z M939.8,2597.4h4.6c1,0,1.9-0.3,2.4-0.8c0.6-0.5,0.9-1.3,0.9-2.2c0-0.9-0.3-1.7-0.9-2.2
			c-0.6-0.5-1.4-0.8-2.4-0.8h-4.6V2597.4z"/>
		<path class="st4" d="M963.8,2604.9v1.6c-0.5,0.2-1,0.3-1.3,0.3c-1.3,0-2-0.6-2.1-1.8c-0.9,1.2-2.3,1.8-4.2,1.8
			c-1.3,0-2.4-0.4-3.1-1.1c-0.6-0.6-1-1.5-1-2.5c0-1.2,0.4-2,1.2-2.7c0.5-0.4,1.4-0.7,2.9-1l4-0.9l0-1c0-1.2-0.9-1.8-2.8-1.8
			c-1.8,0-2.7,0.7-2.9,2.2h-2c0-1.1,0.3-1.9,0.8-2.5c0.8-1,2.2-1.5,4.1-1.5c3.1,0,4.6,1.1,4.6,3.4v6.9c0,0.6,0.3,0.9,0.8,0.9
			c0.1,0,0.2,0,0.5-0.1C963.7,2605,963.8,2605,963.8,2604.9z M960.4,2600.3l-3.2,0.8c-1.1,0.3-1.9,0.6-2.3,0.9
			c-0.4,0.3-0.6,0.7-0.6,1.3c0,1.3,0.8,1.9,2.4,1.9c1.2,0,2.1-0.4,2.9-1.1c0.5-0.5,0.8-1,0.8-1.6V2600.3z"/>
		<path class="st4" d="M965.9,2594.3h1.8v2.3c0.7-1.7,1.9-2.5,3.4-2.5c0.2,0,0.4,0,0.7,0.1v2c-1.3,0-2.2,0.2-2.6,0.6
			c-0.9,0.6-1.3,1.8-1.3,3.6v6.4h-2V2594.3z"/>
		<path class="st4" d="M978.6,2594.3v1.6h-2.5v8.2c0,0.3,0.1,0.5,0.3,0.7s0.5,0.3,0.8,0.3c0.3,0,0.8-0.1,1.4-0.2l0.2,1.7
			c-1,0.2-1.7,0.3-2.3,0.3c-1.6,0-2.4-0.6-2.4-1.9v-9.1h-1.7v-1.6h1.7v-2.5l1.9-0.9v3.4H978.6z"/>
		<path class="st4" d="M990.2,2594c1.9,0,3.3,0.6,4.2,1.9c0.9,1.1,1.3,2.6,1.3,4.6c0,2.1-0.6,3.8-1.7,4.9c-1,1-2.3,1.5-3.9,1.5
			c-1.9,0-3.3-0.6-4.3-1.9c-0.9-1.1-1.3-2.6-1.3-4.5c0-2.2,0.6-3.8,1.7-5C987.2,2594.5,988.5,2594,990.2,2594z M990.2,2595.8
			c-1.1,0-2,0.4-2.6,1.3c-0.6,0.8-1,2-1,3.4c0,1.5,0.4,2.7,1.1,3.5c0.6,0.7,1.5,1.1,2.5,1.1c1.1,0,2-0.4,2.6-1.2
			c0.6-0.8,0.9-1.9,0.9-3.3c0-1.6-0.4-2.8-1.1-3.6C992,2596.2,991.2,2595.8,990.2,2595.8z"/>
		<path class="st4" d="M1002.9,2594.3v1.6h-2v10.8h-1.9v-10.8h-1.7v-1.6h1.7v-2.1c0-0.9,0.3-1.6,0.8-2.1s1.2-0.7,2.1-0.7
			c0.4,0,0.7,0,1.1,0.1v1.6h-0.2c-0.2,0-0.3,0-0.5,0c-0.9,0-1.4,0.4-1.4,1.2v1.9H1002.9z"/>
	</g>
	<g class="st3">
		<path class="st4" d="M947.7,2619.9h-2.1c0-2.2-1.5-3.4-4.3-3.4c-1.2,0-2.1,0.3-2.8,0.8c-0.7,0.5-1.1,1.2-1.1,2.1
			c0,0.6,0.2,1.1,0.6,1.5c0.4,0.4,1.2,0.7,2.2,1l4.1,1.1c2.6,0.7,3.9,2.1,3.9,4.3c0,1.6-0.6,2.9-1.9,3.9c-1.1,0.9-2.7,1.3-4.8,1.3
			c-2.7,0-4.6-0.8-5.8-2.4c-0.6-0.9-1-2-1-3.5h2.1v0c0,1.2,0.4,2.2,1.3,2.9c0.9,0.7,2.1,1,3.6,1c1.4,0,2.5-0.2,3.1-0.7
			c0.8-0.6,1.2-1.3,1.2-2.4c0-1.3-1-2.2-3.1-2.7l-4.3-1.1c-2.2-0.6-3.4-1.9-3.4-4c0-1.6,0.6-2.9,1.8-3.8c1.1-0.8,2.5-1.2,4.2-1.2
			c2.5,0,4.3,0.7,5.4,2.2c0.6,0.8,0.9,1.8,0.9,2.8C947.7,2619.6,947.7,2619.7,947.7,2619.9z"/>
		<path class="st4" d="M964.6,2614.9v17.2h-2.4l-8.9-13.9v13.9h-2.1v-17.2h2.4l9,14v-14H964.6z"/>
		<path class="st4" d="M977.6,2626.9H971l-1.8,5.2h-2.3l6.1-17.2h2.8l6,17.2h-2.4L977.6,2626.9z M977,2625.1l-2.6-7.8l-2.8,7.8H977z
			"/>
	</g>
	<path id="Path_2745" class="st5" d="M790.2,2761.8v-116.2H766v-31.8h62v148H790.2z"/>
</g>
</svg>
