<svg xmlns="http://www.w3.org/2000/svg" width="349.999" height="245.798" viewBox="0 0 349.999 245.798">
  <g id="Work2" transform="translate(-754.001 -2534)">
    <g id="Path_2485" data-name="Path 2485" transform="translate(416.5 2530.979)" fill="none">
      <path d="M380,60.228l230.753-1.207-60.98,156.554H380Z" stroke="none"/>
      <path d="M 604.890625 63.05165100097656 L 384 64.20671081542969 L 384 211.5754241943359 L 547.0385131835938 211.5754241943359 L 604.890625 63.05165100097656 M 610.75341796875 59.02095031738281 L 549.773193359375 215.5754241943359 L 380 215.5754241943359 L 380 60.22758483886719 L 610.75341796875 59.02095031738281 Z" stroke="none" fill="#2c2c2c"/>
    </g>
    <path id="Path_2484" data-name="Path 2484" d="M-812.343-3915.973h-274.114l19.886-193.523h274.114Z" transform="translate(1896.457 6643.496)" fill="#e8b239"/>
    <path id="Path_2488" data-name="Path 2488" d="M1022.513,1030.727v-29.4c18.2-11.8,31.4-21.8,39.6-30.2,16.8-17,26-32.2,26-43.6,0-8.6-5.8-14.4-14-14.4-10.4,0-16.2,7.4-17,23.4h-36c0-34.6,21.4-56.6,54.4-56.6,30.2,0,50.4,19.6,50.4,43,0,23.6-13,45-49.2,76h50.2v31.8Z" transform="translate(-267.111 1749.071)" fill="#130a00"/>
    <text id="Showcase_your_work_to_the_world" data-name="Showcase your work to 
the world" transform="translate(870 2590)" fill="#fefff9" font-size="24" font-family="Almarai-Regular, Almarai" letter-spacing="0.035em"><tspan x="2.972" y="22">Showcase your </tspan><tspan x="47.78" y="47.5">work to </tspan><tspan x="37.112" y="73">the world</tspan></text>
  </g>
</svg>
